<svg width="855" height="309" viewBox="0 0 855 309" fill="none" xmlns="http://www.w3.org/2000/svg">
<path d="M0 253.447V189.619L121.506 -1.86304H179.309V83.2401H146.279L80.8071 187.255V189.619H260.116V253.447H0ZM146.868 300.726V233.944L148.638 206.167V-1.86304H225.316V300.726H146.868Z" fill="url(#paint0_linear_1100_594)" fill-opacity="0.24"/>
<path d="M426.044 309C398.617 308.901 374.925 302.548 354.969 289.94C335.013 277.333 319.628 259.159 308.815 235.421C298.001 211.683 292.643 183.217 292.742 150.023C292.84 116.73 298.247 88.4606 308.962 65.2148C319.776 41.969 335.111 24.2885 354.969 12.1731C374.925 0.0576944 398.617 -6 426.044 -6C453.471 -6 477.163 0.106945 497.119 12.3208C517.075 24.4362 532.46 42.1168 543.273 65.3626C554.087 88.6083 559.444 116.828 559.346 150.023C559.346 183.414 553.939 211.978 543.126 235.717C532.312 259.455 516.927 277.628 496.971 290.236C477.114 302.745 453.471 309 426.044 309ZM426.044 242.218C440.2 242.218 451.8 234.83 460.844 220.055C469.986 205.182 474.508 181.838 474.41 150.023C474.41 129.239 472.346 112.248 468.217 99.0492C464.088 85.8504 458.386 76.099 451.112 69.795C443.837 63.3926 435.481 60.1914 426.044 60.1914C411.888 60.1914 400.337 67.3818 391.391 81.7627C382.445 96.1435 377.874 118.897 377.678 150.023C377.579 171.2 379.594 188.634 383.723 202.326C387.852 215.918 393.554 225.965 400.828 232.466C408.201 238.967 416.607 242.218 426.044 242.218Z" fill="url(#paint1_linear_1100_594)" fill-opacity="0.24"/>
<path d="M594.884 253.447V189.619L716.389 -1.86304H774.193V83.2401H741.162L675.691 187.255V189.619H855V253.447H594.884ZM741.752 300.726V233.944L743.522 206.167V-1.86304H820.2V300.726H741.752Z" fill="url(#paint2_linear_1100_594)" fill-opacity="0.24"/>
<defs>
<linearGradient id="paint0_linear_1100_594" x1="426.113" y1="-99.3318" x2="428" y2="309" gradientUnits="userSpaceOnUse">
<stop/>
<stop offset="1" stop-opacity="0"/>
</linearGradient>
<linearGradient id="paint1_linear_1100_594" x1="426.113" y1="-99.3318" x2="428" y2="309" gradientUnits="userSpaceOnUse">
<stop/>
<stop offset="1" stop-opacity="0"/>
</linearGradient>
<linearGradient id="paint2_linear_1100_594" x1="426.113" y1="-99.3318" x2="428" y2="309" gradientUnits="userSpaceOnUse">
<stop/>
<stop offset="1" stop-opacity="0"/>
</linearGradient>
</defs>
</svg>
