<svg width="177" height="27" viewBox="0 0 177 27" fill="none" xmlns="http://www.w3.org/2000/svg">
<path d="M176.446 -1.45637e-05L0 4.40057L0.554148 26.6197L177 22.2191L176.446 -1.45637e-05Z" fill="#FFE749"/>
<path d="M11.9738 21.1394L11.6992 10.1319L16.11 10.0219C16.933 10.0014 17.6652 10.1274 18.3066 10.3999C18.9479 10.6671 19.4562 11.0687 19.8315 11.6048C20.212 12.1408 20.4118 12.7915 20.4308 13.5567C20.4502 14.3325 20.2989 14.9945 19.9769 15.5428C19.6549 16.091 19.1777 16.5146 18.5453 16.8136C17.9128 17.1126 17.1406 17.2735 16.2286 17.2962L14.491 17.3396L14.5841 21.0742L11.9738 21.1394ZM14.4365 15.1538L16.1111 15.1121C16.6615 15.0983 17.086 14.9802 17.3847 14.7577C17.6885 14.5298 17.834 14.1644 17.8215 13.6611C17.809 13.158 17.64 12.7976 17.3146 12.5803C16.9944 12.3574 16.5748 12.2525 16.0559 12.2655L14.3654 12.3076L14.4365 15.1538ZM20.5903 20.9244L24.4278 9.81446L27.4549 9.73896L31.8808 20.6429L28.9402 20.7162L28.1062 18.5027L24.1592 18.6011L23.4522 20.8531L20.5903 20.9244ZM24.6945 16.4085L27.4464 16.3399L25.9677 12.5689L24.6945 16.4085ZM38.0206 20.7258C36.8832 20.7541 35.8736 20.5459 34.9918 20.1011C34.1101 19.6563 33.4148 19.0128 32.906 18.1706C32.3972 17.3284 32.1284 16.3254 32.0994 15.1618C32.0782 14.3126 32.2003 13.5333 32.4659 12.8239C32.7365 12.1091 33.1249 11.4884 33.631 10.9617C34.1424 10.4349 34.7484 10.0239 35.4491 9.72837C36.1549 9.42757 36.9297 9.26664 37.7736 9.24559C38.6909 9.22272 39.4643 9.31879 40.0938 9.53387C40.7233 9.74894 41.295 10.0625 41.8088 10.4745L40.5572 12.6535C40.2453 12.3466 39.8725 12.1225 39.4389 11.9812C39.0052 11.8347 38.5289 11.7679 38.01 11.7809C37.4963 11.7936 37.0395 11.8811 36.6397 12.0432C36.245 12.1999 35.9096 12.4207 35.6335 12.7055C35.3626 12.9903 35.1587 13.331 35.0217 13.7278C34.8847 14.1246 34.8224 14.5667 34.8345 15.0542C34.8512 15.7251 34.9966 16.2958 35.2705 16.7663C35.5498 17.2366 35.9389 17.594 36.4381 17.8386C36.9371 18.0779 37.5299 18.189 38.2166 18.1718C38.7093 18.1596 39.1949 18.074 39.6735 17.9153C40.1571 17.7511 40.6123 17.4958 41.039 17.1495L42.2888 19.3133C41.7902 19.7192 41.1901 20.0514 40.4885 20.3102C39.7868 20.5637 38.9641 20.7022 38.0206 20.7258ZM43.8997 20.3431L43.6251 9.33567L53.1861 9.09724L53.4602 20.1047L50.8503 20.1698L50.6349 11.5447L46.2949 11.6529L46.51 20.278L43.8997 20.3431ZM56.0617 20.0398L55.7876 9.03233L60.198 8.92234C61.0214 8.90183 61.7535 9.02779 62.3947 9.30028C63.036 9.5675 63.5442 9.96916 63.9199 10.5052C64.2999 11.0413 64.5001 11.6919 64.5189 12.4571C64.5382 13.2329 64.387 13.895 64.0651 14.4432C63.7433 14.9914 63.2659 15.4151 62.6337 15.7141C62.0009 16.013 61.2289 16.1739 60.3166 16.1967L58.5791 16.24L58.6722 19.9747L56.0617 20.0398ZM58.5246 14.0543L60.1992 14.0125C60.7498 13.9988 61.1745 13.8807 61.4727 13.6582C61.7764 13.4303 61.9222 13.0648 61.9095 12.5616C61.8968 12.0584 61.728 11.698 61.4026 11.4807C61.0825 11.2579 60.6633 11.1529 60.1442 11.1659L58.4538 11.2081L58.5246 14.0543ZM71.5919 19.8885C70.7479 19.9096 69.9632 19.7849 69.2378 19.5145C68.5179 19.2387 67.8869 18.848 67.3442 18.3423C66.8021 17.8366 66.375 17.2388 66.0646 16.549C65.7585 15.859 65.5958 15.1078 65.5752 14.2954C65.5552 13.4777 65.6805 12.7167 65.9515 12.0123C66.2274 11.3079 66.6236 10.6896 67.1403 10.1574C67.6564 9.62534 68.2674 9.20626 68.9734 8.90014C69.6843 8.59395 70.4617 8.43036 71.3057 8.4093C72.1545 8.38813 72.9392 8.51542 73.6597 8.79118C74.3797 9.06693 75.0113 9.46024 75.5534 9.97122C76.096 10.4822 76.5201 11.0826 76.8257 11.7726C77.1366 12.4572 77.3018 13.2004 77.3217 14.0024C77.3423 14.8149 77.2141 15.5733 76.9382 16.2778C76.6671 16.9821 76.2733 17.6004 75.7572 18.1325C75.2406 18.6646 74.6295 19.0863 73.9241 19.3976C73.2187 19.7037 72.4413 19.8673 71.5919 19.8885ZM71.5308 17.4354C71.9869 17.424 72.4013 17.3376 72.7752 17.1762C73.154 17.0147 73.4812 16.7862 73.7571 16.4909C74.033 16.1955 74.2417 15.8441 74.3839 15.4367C74.5309 15.024 74.5981 14.5686 74.586 14.0706C74.569 13.3997 74.4184 12.8213 74.1334 12.3354C73.8539 11.8494 73.4722 11.4786 72.9888 11.2232C72.5102 10.9624 71.9694 10.8395 71.3668 10.8545C70.9161 10.8658 70.5011 10.9548 70.1223 11.1215C69.7436 11.2831 69.4163 11.5116 69.1404 11.8069C68.8694 12.1021 68.6607 12.4535 68.5136 12.861C68.3666 13.2686 68.2989 13.7239 68.3116 14.2272C68.3279 14.8928 68.4792 15.4686 68.7635 15.9545C69.0485 16.4405 69.4302 16.8138 69.9088 17.0746C70.3928 17.3301 70.933 17.4503 71.5308 17.4354ZM86.1873 19.2885L85.9719 10.6633L82.6148 10.7471L82.6342 11.5176C82.6656 12.7756 82.6245 13.865 82.5114 14.7856C82.3976 15.701 82.1992 16.4717 81.9161 17.0977C81.6378 17.7183 81.259 18.2182 80.7811 18.5972C80.3025 18.9763 79.709 19.256 79 19.4362L78.0568 17.2648C78.5106 17.1538 78.879 16.9899 79.1621 16.773C79.4501 16.556 79.6703 16.2411 79.8228 15.8282C79.9807 15.4152 80.0823 14.8672 80.1283 14.1842C80.1791 13.4958 80.1912 12.6275 80.1652 11.5792L80.0866 8.42631L88.5232 8.21589L88.7979 19.2234L86.1873 19.2885ZM78.1814 22.2574L78.0568 17.2648L79.5288 17.2832L80.3413 17.0505L90.5154 16.7967L90.6437 21.9466L88.1669 22.0084L88.0979 19.2408L80.5893 19.4281L80.6583 22.1956L78.1814 22.2574ZM91.0763 19.1665L94.9137 8.05653L97.9405 7.98103L102.367 18.8849L99.4258 18.9583L98.5921 16.7448L94.6451 16.8432L93.9379 19.0952L91.0763 19.1665ZM95.1805 14.6506L97.932 14.5819L96.4534 10.811L95.1805 14.6506ZM115.724 18.5518L111.587 12.9197L115.056 7.55415L118.02 7.48022L114.48 12.8475L118.766 18.4759L115.724 18.5518ZM102.617 18.8787L106.59 13.1938L102.854 7.85852L105.904 7.78241L109.48 13.0037L105.542 18.8057L102.617 18.8787ZM109.379 18.71L109.262 14.0319L107.398 14.0784L107.345 11.9083L109.208 11.8619L109.104 7.70261L111.714 7.63752L111.818 11.7968L113.698 11.7499L113.751 13.9199L111.872 13.9668L111.989 18.6449L109.379 18.71ZM119.025 18.4695L122.862 7.35946L125.889 7.28396L130.315 18.1879L127.375 18.2613L126.54 16.0477L122.593 16.1461L121.887 18.3981L119.025 18.4695ZM123.129 13.9535L125.881 13.8849L124.402 10.114L123.129 13.9535ZM137.22 18.0157L137.016 9.83086L134.553 10.7734L133.818 8.75409L139.156 6.71708L139.329 6.71278L139.61 17.9561L137.22 18.0157ZM144.452 17.8353L144.249 9.65051L141.786 10.593L141.051 8.57374L146.39 6.53667L146.562 6.53238L146.843 17.7757L144.452 17.8353ZM150.724 17.9149C150.294 17.9257 149.916 17.7987 149.589 17.5341C149.268 17.2694 149.102 16.9038 149.09 16.4373C149.082 16.1228 149.147 15.8511 149.282 15.6222C149.424 15.3931 149.613 15.2126 149.851 15.0809C150.094 14.9489 150.36 14.8793 150.648 14.8721C151.083 14.8613 151.461 14.9882 151.783 15.2529C152.104 15.5177 152.271 15.8859 152.282 16.3576C152.29 16.6722 152.224 16.9439 152.083 17.173C151.942 17.402 151.752 17.5799 151.513 17.7064C151.276 17.8382 151.012 17.9078 150.724 17.9149ZM154.788 17.5776L154.583 9.39272L152.121 10.3353L151.386 8.31596L156.724 6.27894L156.897 6.27465L157.178 17.518L154.788 17.5776ZM162.02 17.3972L161.816 9.21237L159.353 10.1549L158.619 8.13561L163.957 6.09853L164.13 6.09424L164.411 17.3376L162.02 17.3972Z" fill="black"/>
</svg>
